<svg id="Layer_1" data-name="Layer 1" xmlns="http://www.w3.org/2000/svg" viewBox="0 0 110.86 127.99"><defs><style>.cls-1,.cls-10,.cls-14{fill:#fff;}.cls-2,.cls-7,.cls-9{fill:none;}.cls-2{stroke:#0d0233;stroke-width:12px;}.cls-10,.cls-14,.cls-15,.cls-2,.cls-7,.cls-9{stroke-miterlimit:10;}.cls-3{fill:#15003e;}.cls-4{fill:#eff4ee;}.cls-5{fill:#25e899;}.cls-6{fill:#0fce7c;}.cls-7{stroke:#0fce7c;}.cls-13,.cls-8{fill:#f679a6;}.cls-9{stroke:#f679a6;stroke-width:6px;}.cls-10{stroke:#000;stroke-width:0.25px;}.cls-11{fill:#3a3157;}.cls-12{fill:#453c68;}.cls-13{font-size:8.94px;font-family:ComicSansMS-Bold, Comic Sans MS;font-weight:700;}.cls-14,.cls-15{stroke:#270840;}.cls-15{fill:#5eca83;}.cls-16{fill:#11043b;}.cls-17{fill:#5ec982;}</style></defs><polygon class="cls-1" points="110.53 32.06 110.53 95.98 55.18 127.94 10.88 102.37 10.68 102.25 -0.18 95.98 -0.18 32.06 55.18 0.1 110.53 32.06"/><polygon class="cls-2" points="105 35.6 105 92.6 55.64 121.1 16.14 98.3 15.96 98.19 6.27 92.6 6.27 35.6 55.64 7.1 105 35.6"/><path class="cls-3" d="M38.82,49.45l-.09.5A.73.73,0,0,1,38.82,49.45Z"/><path class="cls-3" d="M39.27,37.6v10a.71.71,0,0,0-.47-.17h-.67l-.36,0V37.6a.75.75,0,0,1,1.5,0Z"/><path class="cls-3" d="M39.55,48.16a.74.74,0,0,1-.28.58V47.58a0,0,0,0,1,0,0A.73.73,0,0,1,39.55,48.16Z"/><path class="cls-3" d="M40.46,58.71a.75.75,0,0,1-.2.51L40,58A.72.72,0,0,1,40.46,58.71Z"/><path class="cls-4" d="M49.72,66.54a1.17,1.17,0,1,0-1.17,1.16,1.17,1.17,0,0,0,1.17-1.16"/><path class="cls-4" d="M62.24,66.54a1.17,1.17,0,1,0-2.33,0,1.17,1.17,0,0,0,2.33,0"/><polygon class="cls-5" points="41.56 60.98 65.63 60.98 67.67 61.76 66.14 67.25 43.08 67.25 41.56 60.98"/><path class="cls-4" d="M62.88,74H46.34a3.25,3.25,0,0,1-3.26-3.26V67.25H66.14v3.53A3.26,3.26,0,0,1,62.88,74"/><path class="cls-3" d="M62.88,74.79H46.34a4,4,0,0,1-4-4V66.5H66.89v4.28A4,4,0,0,1,62.88,74.79ZM43.82,68v2.78a2.51,2.51,0,0,0,2.52,2.51H62.88a2.51,2.51,0,0,0,2.51-2.51V68Z"/><path class="cls-6" d="M62.94,45.71c-.11-.06-.23-.1-.34-.15l-.11-.16a.72.72,0,0,1-.14-.47A8.87,8.87,0,0,1,62.94,45.71Z"/><path class="cls-6" d="M64.29,51.31a9.94,9.94,0,0,1-5.53,8.94.72.72,0,0,0-.4.73H50.25a10.26,10.26,0,0,1-4.61-14.83c.1-.18.21-.34.32-.5a.56.56,0,0,1-.1.27l-.09.16a20.67,20.67,0,0,1,16.69-.52A9.86,9.86,0,0,1,64.29,51.31Z"/><path class="cls-3" d="M50.47,61h-.09a10.29,10.29,0,0,1-6.15-9.42,10.11,10.11,0,0,1,1.55-5.41c.1-.18.21-.34.32-.5a.56.56,0,0,1-.1.27.83.83,0,0,0-.09.16h0A10,10,0,0,0,50.06,60.3.75.75,0,0,1,50.47,61Z"/><path class="cls-3" d="M62.94,45.71c-.11-.06-.23-.1-.34-.15l-.11-.16a.72.72,0,0,1-.14-.47A8.87,8.87,0,0,1,62.94,45.71Z"/><path class="cls-1" d="M67.81,47a22.16,22.16,0,0,0-4.67-2.68L63,44.22a22.09,22.09,0,0,0-18.22.62h0l-.06,0h0a21.77,21.77,0,0,0-4.09,2.64A14.56,14.56,0,0,1,67.81,47Z"/><path class="cls-3" d="M39.28,47.59s0,0,0,.06v1.09a.74.74,0,0,0,.28-.58A.73.73,0,0,0,39.28,47.59ZM40,58l.31,1.21a.75.75,0,0,0,.2-.51A.72.72,0,0,0,40,58Z"/><path class="cls-3" d="M38.82,49.45l-.09.5A.73.73,0,0,1,38.82,49.45Z"/><path class="cls-3" d="M46.1,45.65a.56.56,0,0,1-.1.27.83.83,0,0,0-.09.16h0l-.12.07C45.88,46,46,45.81,46.1,45.65Z"/><path class="cls-3" d="M62.94,45.71c-.11-.06-.23-.1-.34-.15l-.11-.16a.72.72,0,0,1-.14-.47A8.87,8.87,0,0,1,62.94,45.71Z"/><path class="cls-3" d="M67.67,61.73H41.56a.75.75,0,0,1,0-1.5H67.67a.75.75,0,0,1,0,1.5Z"/><path class="cls-3" d="M63.86,65.86a2.34,2.34,0,0,1-1.94-1.33c-.33-.51-.47-.66-.7-.66s-.36.15-.69.66a2.09,2.09,0,0,1-3.89,0c-.34-.51-.48-.66-.7-.66s-.36.15-.7.66a2.09,2.09,0,0,1-3.89,0c-.33-.51-.47-.66-.69-.66s-.37.15-.7.66a2.09,2.09,0,0,1-3.9,0c-.33-.51-.47-.66-.69-.66a.75.75,0,0,1,0-1.5,2.34,2.34,0,0,1,1.94,1.33c.34.51.48.67.7.67s.36-.16.7-.67a2.09,2.09,0,0,1,3.89,0c.33.51.47.67.7.67s.36-.16.69-.67a2.09,2.09,0,0,1,3.9,0c.33.51.47.67.69.67s.36-.16.7-.67a2.09,2.09,0,0,1,3.89,0c.33.51.47.67.69.67a.75.75,0,1,1,0,1.49Z"/><line class="cls-7" x1="49.22" y1="70.46" x2="62.66" y2="70.46"/><path class="cls-8" d="M50.09,47.28h0a4,4,0,0,0-2.14,2,4.57,4.57,0,0,0-.14,3.43h0c.78,2.31,2.3,3.4,5.32,5.57l1.13.81.46-.33.67-.48c3-2.17,4.54-3.26,5.32-5.57h0a4.62,4.62,0,0,0-.14-3.43,4,4,0,0,0-2.14-2,4.12,4.12,0,0,0-2.25-.19,3.69,3.69,0,0,0-1.93,1.08,3.68,3.68,0,0,0-1.94-1.08A4.09,4.09,0,0,0,50.09,47.28Z"/><g id="Layer_63" data-name="Layer 63"><polygon class="cls-9" points="104.09 35.32 104.09 91.68 55.29 119.86 6.48 91.68 6.48 35.32 55.29 7.14 104.09 35.32"/></g><path class="cls-3" d="M70.6,47.43V33.49a.75.75,0,0,0-.74-.76.76.76,0,0,0-.75.76V45.64a16,16,0,0,0-29.88,2,.73.73,0,0,1,0,1.15V47.58a.69.69,0,0,0-.46-.17h-.68a2.07,2.07,0,0,0-.35,0,3.06,3.06,0,0,0-2.71,3v5.9a3.08,3.08,0,0,0,3.06,3.08h1.59a.74.74,0,0,0,.55-.24L39.9,58a.64.64,0,0,0-.24,0H38.07a1.58,1.58,0,0,1-1.57-1.58v-5.9A1.56,1.56,0,0,1,37.72,49v3.21a.75.75,0,0,0,.74.75l.14,0L39.9,58a.72.72,0,0,1,.51.7.75.75,0,0,1-.2.51L42.44,68H66.67l2.17-8.54H70.3a3.09,3.09,0,0,0,3.08-3.08v-5.9A3.06,3.06,0,0,0,70.6,47.43ZM38.68,50a.68.68,0,0,1,.09-.5C38.73,49.61,38.71,49.78,38.68,50ZM54.55,37.83A14.58,14.58,0,0,1,68.07,47,22.16,22.16,0,0,0,63.4,44.3l-.19-.08A22.09,22.09,0,0,0,45,44.84h0l-.06,0h0a21.38,21.38,0,0,0-4.08,2.64A14.56,14.56,0,0,1,54.55,37.83Zm11,28.68H43.61L40,52.3a15.49,15.49,0,0,1,.18-2.17,20.45,20.45,0,0,1,3.39-2.74,11.54,11.54,0,0,0-.68,3.92,11.42,11.42,0,0,0,6.46,10.34.84.84,0,0,0,.34.08.71.71,0,0,0,.66-.42.8.8,0,0,0,.08-.33h-.09a10.28,10.28,0,0,1-4.61-14.83c.1-.18.22-.34.32-.5a.54.54,0,0,1-.09.27.86.86,0,0,0-.1.16,20.67,20.67,0,0,1,16.69-.52.57.57,0,0,0-.11-.16.86.86,0,0,1-.14-.47,7.36,7.36,0,0,1,.6.78l-.35-.15a10,10,0,0,1-3.69,14.69.78.78,0,0,0-.34,1,.75.75,0,0,0,.67.42.72.72,0,0,0,.34-.09,11.5,11.5,0,0,0,5.39-14.88,21.54,21.54,0,0,1,3.92,2.85,14.63,14.63,0,0,1,.28,2.74Zm6.38-10.13A1.58,1.58,0,0,1,70.3,58H69.22l1.37-5.39V48.94a1.57,1.57,0,0,1,1.28,1.54Z"/><polygon class="cls-10" points="57.1 68.34 58.18 101.45 87.31 83.53 88.94 47.11 57.1 68.34"/><polygon class="cls-11" points="58.05 69.58 58.05 101.42 87.31 83.53 89.88 48.36 58.05 69.58"/><polygon class="cls-10" points="53.69 68.34 52.95 101.45 23.08 83.53 21.85 47.11 53.69 68.34"/><polygon class="cls-12" points="52.74 69.58 52.74 101.42 23.08 83.53 20.91 48.36 52.74 69.58"/><rect x="52.74" y="69.58" width="5.31" height="31.83"/><path d="M55.29,68.49c-1.53,0-2.76.49-2.76,1.09h5.52C58.05,69,56.81,68.49,55.29,68.49Z"/><text class="cls-13" transform="matrix(1.13, -0.85, -0.14, 0.99, 61.45, 75.27)">Kama<tspan x="0" y="10.73">Sutra</tspan></text><path class="cls-14" d="M77.64,77.22h9A1.75,1.75,0,0,1,88.45,79V82.6a1.75,1.75,0,0,1-1.75,1.75H77.84a3.67,3.67,0,0,1-3.67-3.67v0a3.47,3.47,0,0,1,3.47-3.47Z" transform="translate(38.24 -25.44) rotate(23.12)"/><rect class="cls-14" x="76.17" y="78.43" width="10.58" height="4.76" rx="2.38" transform="translate(38.26 -25.49) rotate(23.12)"/><circle class="cls-15" cx="78.72" cy="79.42" r="2.24"/><path class="cls-14" d="M25.92,76.82h9a1.75,1.75,0,0,1,1.75,1.75v3.62A1.75,1.75,0,0,1,35,83.94H26.12a3.66,3.66,0,0,1-3.66-3.66v0a3.46,3.46,0,0,1,3.46-3.46Z" transform="translate(74.2 153.5) rotate(168.81)"/><rect class="cls-15" x="29.66" y="77.53" width="5.05" height="5.05" rx="2.52" transform="translate(79.29 152.35) rotate(168.81)"/><path class="cls-16" d="M18.94,28.35l1.44-.83.07.11a3.23,3.23,0,0,1,.31.75,1.89,1.89,0,0,1-.93,2,2,2,0,0,1-1.56.19,2.1,2.1,0,0,1-.48-3.85,1.93,1.93,0,0,1,.86-.27,2.58,2.58,0,0,1,1,.15l-.17.58a1.46,1.46,0,0,0-1.38,0,1.52,1.52,0,0,0,1.49,2.66,1.17,1.17,0,0,0,.54-.67,1.08,1.08,0,0,0,0-.83l-.88.51Z"/><path class="cls-16" d="M21.81,24.46l2,3.5-.52.3-2-3.49Z"/><path class="cls-16" d="M25.1,23.22l1.73,3-.53.3-1.72-3-.81.46-.28-.49,2.13-1.23.28.49Z"/><path class="cls-16" d="M29.86,20.07l.36.62a1.68,1.68,0,0,0-1.17.17,1.34,1.34,0,0,0-.68.91,1.46,1.46,0,0,0,.17,1.15,1.41,1.41,0,0,0,.9.71,1.44,1.44,0,0,0,1.13-.14,1.54,1.54,0,0,0,.58-.62c0-.09.09-.2.13-.32l.37.63a2.15,2.15,0,0,1-.8.81,2,2,0,0,1-1.58.21,2.11,2.11,0,0,1-.47-3.86A2.09,2.09,0,0,1,29.86,20.07Z"/><path class="cls-17" d="M32.41,19.91a2,2,0,0,1-.19-1.58,2.07,2.07,0,0,1,1-1.27,2,2,0,0,1,1.59-.21,2,2,0,0,1,1.28,1,2,2,0,0,1,.19,1.58,2,2,0,0,1-1,1.28,2.1,2.1,0,0,1-1.48.24A2,2,0,0,1,32.41,19.91Zm.54-.3a1.43,1.43,0,0,0,.94.73,1.5,1.5,0,0,0,1.81-1.06,1.45,1.45,0,0,0-.16-1.15,1.42,1.42,0,0,0-.91-.72A1.49,1.49,0,0,0,33,19.61Z"/><path class="cls-16" d="M37.47,15.43l2,3.49-.53.31-2-3.49Z"/><path class="cls-16" d="M41.52,17.75,39.37,14l4.09,1.19-1.4-2.43.52-.3,2.14,3.7L40.64,15l1.41,2.44Z"/><path class="cls-8" d="M71.89,83h0a1.24,1.24,0,0,1,1.34.45,2.66,2.66,0,0,1,.08,2.09h0c-.49,1.71-1.44,2.94-3.32,5.38l-.7.91-.29,0-.41-.06c-1.88-.27-2.83-.4-3.32-1.55h0A3.07,3.07,0,0,1,65.36,88a5.53,5.53,0,0,1,1.33-2,4.17,4.17,0,0,1,1.4-.93,1.51,1.51,0,0,1,1.2,0,5.29,5.29,0,0,1,1.2-1.37A3.51,3.51,0,0,1,71.89,83Z"/></svg>