<svg id="Layer_1" data-name="Layer 1" xmlns="http://www.w3.org/2000/svg" viewBox="0 0 110.86 127.99"><defs><style>.cls-1,.cls-20,.cls-7{fill:#fff;}.cls-2{fill:#100036;}.cls-10,.cls-13,.cls-18,.cls-19,.cls-3,.cls-5,.cls-9{fill:none;}.cls-3{stroke:#f679a6;stroke-width:5px;}.cls-10,.cls-13,.cls-15,.cls-16,.cls-17,.cls-18,.cls-19,.cls-20,.cls-3,.cls-4,.cls-5,.cls-6,.cls-7,.cls-8,.cls-9{stroke-miterlimit:10;}.cls-12,.cls-14,.cls-16,.cls-17,.cls-4{fill:#6ee29e;}.cls-4,.cls-5,.cls-6,.cls-7,.cls-8,.cls-9{stroke:#0e0e0e;}.cls-13,.cls-14,.cls-15,.cls-16,.cls-17,.cls-18,.cls-4,.cls-5,.cls-6,.cls-7,.cls-8{stroke-width:0.5px;}.cls-11,.cls-6{fill:#f679a6;}.cls-15,.cls-8{fill:#eff3ed;}.cls-10,.cls-12,.cls-19,.cls-9{stroke-width:0.25px;}.cls-10,.cls-12,.cls-13,.cls-14,.cls-15,.cls-16,.cls-17,.cls-18{stroke:#11043b;}.cls-10,.cls-13,.cls-15,.cls-16{stroke-linecap:round;}.cls-12,.cls-14{stroke-linejoin:round;}.cls-19{stroke:#fff;}.cls-20{stroke:#270840;}.cls-21{fill:#11043b;}.cls-22{fill:#5ec982;}</style></defs><polygon class="cls-1" points="110.01 31.88 110.01 96.88 55.07 129.38 11.1 103.38 10.9 103.25 0.12 96.88 0.12 31.88 55.07 -0.63 110.01 31.88"/><g id="Layer_63" data-name="Layer 63"><polygon class="cls-2" points="110.85 32 110.85 96 55.43 128 11.08 102.4 10.88 102.28 0 96 0 32 55.43 0 110.85 32"/></g><g id="Layer_63-2" data-name="Layer 63"><polygon class="cls-1" points="101.44 37.93 101.44 91.06 55.42 117.63 9.41 91.06 9.41 37.93 55.42 11.36 101.44 37.93"/></g><g id="Layer_63-3" data-name="Layer 63"><polygon class="cls-3" points="106.23 34.66 106.23 93.33 55.43 122.66 4.62 93.33 4.62 34.66 55.43 5.33 106.23 34.66"/></g><line class="cls-4" x1="65.73" y1="65.06" x2="77.2" y2="65.06"/><path class="cls-5" d="M65.73,62.2H77.2a0,0,0,0,1,0,0v.65a5.73,5.73,0,0,1-5.73,5.73h0a5.73,5.73,0,0,1-5.73-5.73V62.2a0,0,0,0,1,0,0Z"/><circle class="cls-6" cx="71.41" cy="65.21" r="1.18"/><path class="cls-5" d="M66.16,69.68h0a.95.95,0,0,1,.95.95v4.7a.95.95,0,0,1-.95.95h-.95a0,0,0,0,1,0,0V70.63A.95.95,0,0,1,66.16,69.68Z"/><line class="cls-5" x1="68.23" y1="70.57" x2="68.23" y2="76.87"/><rect class="cls-5" x="65.21" y="78.65" width="3.02" height="1.27" rx="0.63"/><rect class="cls-5" x="63.85" y="82.67" width="6.07" height="1.69" rx="0.85"/><rect class="cls-5" x="65.84" y="79.92" width="1.68" height="2.75"/><line class="cls-5" x1="65.21" y1="77.77" x2="68.23" y2="77.77"/><rect class="cls-5" x="64.73" y="84.36" width="1.62" height="0.6"/><rect class="cls-5" x="67.19" y="84.36" width="1.62" height="0.6"/><line class="cls-5" x1="65.21" y1="74.18" x2="67.1" y2="74.18"/><line class="cls-5" x1="65.21" y1="71.72" x2="67.1" y2="71.72"/><circle class="cls-5" cx="66.5" cy="77.01" r="0.71"/><line class="cls-5" x1="66.68" y1="78.65" x2="66.68" y2="77.77"/><polyline class="cls-5" points="65.81 69 66.97 69 67.81 69.85"/><path class="cls-5" d="M76,69.7h.95a.95.95,0,0,1,.95.95v4.7a.95.95,0,0,1-.95.95h0a.95.95,0,0,1-.95-.95V69.7a0,0,0,0,1,0,0Z" transform="translate(153.87 146) rotate(-180)"/><line class="cls-5" x1="74.87" y1="70.59" x2="74.87" y2="76.89"/><rect class="cls-5" x="74.87" y="78.68" width="3.02" height="1.27" rx="0.63" transform="translate(152.75 158.62) rotate(-180)"/><rect class="cls-5" x="73.18" y="82.69" width="6.07" height="1.69" rx="0.85" transform="translate(152.42 167.08) rotate(180)"/><rect class="cls-5" x="75.57" y="79.94" width="1.68" height="2.75" transform="translate(152.82 162.64) rotate(-180)"/><line class="cls-5" x1="77.88" y1="77.79" x2="74.87" y2="77.79"/><rect class="cls-5" x="76.74" y="84.39" width="1.62" height="0.6" transform="translate(155.1 169.37) rotate(-180)"/><rect class="cls-5" x="74.28" y="84.39" width="1.62" height="0.6" transform="translate(150.18 169.37) rotate(-180)"/><line class="cls-5" x1="77.88" y1="74.2" x2="75.99" y2="74.2"/><line class="cls-5" x1="77.88" y1="71.74" x2="75.99" y2="71.74"/><circle class="cls-5" cx="76.59" cy="77.03" r="0.71"/><line class="cls-5" x1="76.41" y1="78.68" x2="76.41" y2="77.79"/><polyline class="cls-5" points="77.28 69.03 76.13 69.03 75.28 69.88"/><line class="cls-5" x1="62.32" y1="65.15" x2="62.32" y2="61.63"/><rect class="cls-5" x="60.45" y="61.63" width="3.73" height="11.55" rx="1.87"/><circle class="cls-6" cx="62.32" cy="70.96" r="0.99"/><line class="cls-5" x1="60.45" y1="65.15" x2="64.18" y2="65.15"/><line class="cls-5" x1="60.45" y1="67.4" x2="64.18" y2="67.4"/><path class="cls-7" d="M61.68,77.37V74.92a.62.62,0,0,1,.62-.62h.53a.62.62,0,0,1,.62.62v2.45"/><circle class="cls-6" cx="62.56" cy="77.37" r="0.88"/><rect class="cls-5" x="79.65" y="60.11" width="3.73" height="11.55" rx="1.87" transform="translate(174.72 113.82) rotate(168.27)"/><line class="cls-5" x1="82.88" y1="63.3" x2="79.23" y2="64.05"/><line class="cls-5" x1="83.34" y1="65.5" x2="79.68" y2="66.26"/><line class="cls-4" x1="81.05" y1="63.67" x2="80.34" y2="60.23"/><path class="cls-8" d="M84.37,75.27l-.5-2.39a.63.63,0,0,0-.74-.49l-.51.11a.62.62,0,0,0-.48.74l.49,2.39"/><circle class="cls-6" cx="83.5" cy="75.45" r="0.88"/><rect class="cls-5" x="67.21" y="60.37" width="8.16" height="1.84"/><line class="cls-5" x1="68.16" y1="59.45" x2="74.53" y2="59.45"/><polygon class="cls-6" points="66.95 54.2 74.95 54.2 75.62 54.46 75.11 56.28 67.45 56.28 66.95 54.2"/><path class="cls-5" d="M74,58.54h-5.5a1.09,1.09,0,0,1-1.08-1.09V56.28h7.66v1.17A1.08,1.08,0,0,1,74,58.54Z"/><path class="cls-6" d="M69.88,54.2a3.41,3.41,0,0,1-1.27-5.3c.63-.76,4.57-.8,5.2-.1a3.42,3.42,0,0,1-1.19,5.4"/><path class="cls-5" d="M69.66,54.2a3.58,3.58,0,0,1-1.45-5.14"/><path class="cls-5" d="M74.1,48.87A3.51,3.51,0,0,1,74.79,51a3.58,3.58,0,0,1-2,3.2"/><path class="cls-5" d="M66.2,51.34a5.09,5.09,0,1,1,10.17,0l-1.26,4.94H67.45Z"/><line class="cls-5" x1="66.2" y1="51.27" x2="66.2" y2="46.43"/><line class="cls-5" x1="76.37" y1="51.27" x2="76.37" y2="45.06"/><path class="cls-5" d="M66.59,53.44h-.52a.77.77,0,0,1-.78-.77v-2a.77.77,0,0,1,.78-.77h.22"/><path class="cls-5" d="M76,53.44h.53a.77.77,0,0,0,.77-.77v-2a.77.77,0,0,0-.77-.77h-.23"/><path class="cls-5" d="M66.25,50.49a7.1,7.1,0,0,1,10-.21"/><line class="cls-5" x1="66.95" y1="54.2" x2="75.62" y2="54.2"/><circle class="cls-1" cx="70.12" cy="50.45" r="0.89"/><ellipse class="cls-9" cx="71.12" cy="55.33" rx="0.77" ry="0.26"/><path class="cls-10" d="M57.22,43.31s-1.18,4.15.35,5.93-.75,5.1.19,8.45a8.75,8.75,0,0,1,.06,5.42"/><path class="cls-11" d="M52.5,30.3h0a4.28,4.28,0,0,0-2.34,2.14A5,5,0,0,0,50,36.17h0c.86,2.51,2.51,3.7,5.81,6.07l1.22.88.51-.36.72-.52c3.3-2.37,4.95-3.56,5.81-6.07h0A5,5,0,0,0,64,32.44a4.28,4.28,0,0,0-2.34-2.14,4.36,4.36,0,0,0-2.45-.2,3.87,3.87,0,0,0-2.1,1.17A3.93,3.93,0,0,0,55,30.1,4.36,4.36,0,0,0,52.5,30.3Z"/><line class="cls-12" x1="29.73" y1="65.06" x2="41.23" y2="65.06"/><path class="cls-13" d="M29.73,62.2H41.2a0,0,0,0,1,0,0v.65a5.73,5.73,0,0,1-5.73,5.73h0a5.73,5.73,0,0,1-5.73-5.73V62.2a0,0,0,0,1,0,0Z"/><circle class="cls-14" cx="35.41" cy="65.21" r="1.18"/><path class="cls-13" d="M30.16,69.68h0a.95.95,0,0,1,.95.95v4.7a.95.95,0,0,1-.95.95h-.95a0,0,0,0,1,0,0V70.63A.95.95,0,0,1,30.16,69.68Z"/><line class="cls-13" x1="32.23" y1="70.57" x2="32.23" y2="76.87"/><rect class="cls-13" x="29.21" y="78.65" width="3.02" height="1.27" rx="0.63"/><rect class="cls-13" x="27.85" y="82.67" width="6.07" height="1.69" rx="0.85"/><rect class="cls-13" x="29.84" y="79.92" width="1.68" height="2.75"/><line class="cls-13" x1="29.21" y1="77.77" x2="32.23" y2="77.77"/><rect class="cls-13" x="28.73" y="84.36" width="1.62" height="0.6"/><rect class="cls-13" x="31.19" y="84.36" width="1.62" height="0.6"/><line class="cls-13" x1="29.21" y1="74.18" x2="31.1" y2="74.18"/><line class="cls-13" x1="29.21" y1="71.72" x2="31.1" y2="71.72"/><circle class="cls-13" cx="30.5" cy="77.01" r="0.71"/><line class="cls-13" x1="30.68" y1="78.65" x2="30.68" y2="77.77"/><polyline class="cls-13" points="29.81 69 30.96 69 31.81 69.85"/><path class="cls-13" d="M40,69.7h.95a.95.95,0,0,1,.95.95v4.7a.95.95,0,0,1-.95.95h0a.95.95,0,0,1-.95-.95V69.7A0,0,0,0,1,40,69.7Z" transform="translate(81.87 146) rotate(-180)"/><line class="cls-13" x1="38.87" y1="70.59" x2="38.87" y2="76.89"/><rect class="cls-13" x="38.87" y="78.68" width="3.02" height="1.27" rx="0.63" transform="translate(80.75 158.62) rotate(-180)"/><rect class="cls-13" x="37.18" y="82.69" width="6.07" height="1.69" rx="0.85" transform="translate(80.42 167.08) rotate(180)"/><rect class="cls-13" x="39.57" y="79.94" width="1.68" height="2.75" transform="translate(80.82 162.64) rotate(-180)"/><line class="cls-13" x1="41.88" y1="77.79" x2="38.87" y2="77.79"/><rect class="cls-13" x="40.74" y="84.39" width="1.62" height="0.6" transform="translate(83.1 169.37) rotate(-180)"/><rect class="cls-13" x="38.28" y="84.39" width="1.62" height="0.6" transform="translate(78.18 169.37) rotate(-180)"/><line class="cls-13" x1="41.88" y1="74.2" x2="39.99" y2="74.2"/><line class="cls-13" x1="41.88" y1="71.74" x2="39.99" y2="71.74"/><circle class="cls-13" cx="40.59" cy="77.03" r="0.71"/><line class="cls-13" x1="40.41" y1="78.68" x2="40.41" y2="77.79"/><polyline class="cls-13" points="41.28 69.03 40.13 69.03 39.28 69.88"/><line class="cls-13" x1="26.32" y1="65.15" x2="26.32" y2="61.63"/><rect class="cls-13" x="24.45" y="61.63" width="3.73" height="11.55" rx="1.87"/><circle class="cls-14" cx="26.32" cy="70.96" r="0.99"/><line class="cls-13" x1="24.45" y1="65.15" x2="28.18" y2="65.15"/><line class="cls-13" x1="24.45" y1="67.4" x2="28.18" y2="67.4"/><path class="cls-15" d="M25.68,77.37V74.92a.62.62,0,0,1,.62-.62h.53a.62.62,0,0,1,.62.62v2.45"/><circle class="cls-16" cx="26.56" cy="77.37" r="0.88"/><rect class="cls-13" x="45.7" y="56.5" width="3.73" height="11.55" rx="1.87" transform="translate(109.84 14.71) rotate(90)"/><line class="cls-13" x1="45.31" y1="60.41" x2="45.31" y2="64.14"/><line class="cls-13" x1="47.57" y1="60.41" x2="47.57" y2="64.14"/><line class="cls-16" x1="45.31" y1="62.27" x2="41.79" y2="62.27"/><path class="cls-15" d="M57.34,61.39H54.89a.62.62,0,0,0-.62.62v.53a.62.62,0,0,0,.62.62h2.45"/><circle class="cls-16" cx="57.34" cy="62.27" r="0.88"/><rect class="cls-13" x="31.21" y="60.37" width="8.16" height="1.84"/><line class="cls-13" x1="32.16" y1="59.45" x2="38.53" y2="59.45"/><polygon class="cls-17" points="30.95 54.2 38.95 54.2 39.62 54.46 39.11 56.28 31.45 56.28 30.95 54.2"/><path class="cls-13" d="M38,58.54h-5.5a1.09,1.09,0,0,1-1.08-1.09V56.28h7.66v1.17A1.08,1.08,0,0,1,38,58.54Z"/><path class="cls-17" d="M33.88,54.2a3.41,3.41,0,0,1-1.27-5.3c.63-.76,4.57-.8,5.2-.1a3.42,3.42,0,0,1-1.19,5.4"/><path class="cls-18" d="M33.66,54.2a3.58,3.58,0,0,1-1.45-5.14"/><path class="cls-13" d="M38.1,48.87A3.51,3.51,0,0,1,38.79,51a3.58,3.58,0,0,1-2,3.2"/><path class="cls-18" d="M30.2,51.34a5.09,5.09,0,1,1,10.17,0l-1.26,4.94H31.45Z"/><line class="cls-13" x1="30.2" y1="51.27" x2="30.2" y2="46.43"/><line class="cls-13" x1="40.37" y1="51.27" x2="40.37" y2="45.06"/><path class="cls-13" d="M30.59,53.44h-.52a.77.77,0,0,1-.78-.77v-2a.77.77,0,0,1,.78-.77h.22"/><path class="cls-13" d="M40,53.44h.53a.77.77,0,0,0,.77-.77v-2a.77.77,0,0,0-.77-.77h-.23"/><path class="cls-13" d="M30.25,50.49a7.1,7.1,0,0,1,10-.21"/><line class="cls-13" x1="30.95" y1="54.2" x2="39.62" y2="54.2"/><circle class="cls-1" cx="36.18" cy="49.94" r="0.89"/><circle class="cls-1" cx="37.34" cy="51.27" r="0.36"/><path class="cls-13" d="M32.62,54.9s4,1.55,5.71,0"/><path class="cls-11" d="M56.81,42.58l-.75,1.52H58C58.33,44.1,56.81,42.58,56.81,42.58Z"/><path class="cls-19" d="M58.06,31.88s4.17-1.78,5.17,3.22"/><path class="cls-11" d="M34.82,39.17h0a.85.85,0,0,0-.47.44,1,1,0,0,0,0,.75h0c.17.5.51.74,1.17,1.22l.25.18.11-.07.14-.11c.67-.48,1-.72,1.18-1.22h0a1.07,1.07,0,0,0,0-.75.88.88,0,0,0-.47-.44,1,1,0,0,0-.5,0,.8.8,0,0,0-.43.24.78.78,0,0,0-.42-.24A.94.94,0,0,0,34.82,39.17Z"/><path class="cls-11" d="M29.82,41.17h0a.85.85,0,0,0-.47.44,1,1,0,0,0,0,.75h0c.17.5.51.74,1.17,1.22l.25.18.11-.07.14-.11c.67-.48,1-.72,1.18-1.22h0a1.07,1.07,0,0,0,0-.75.88.88,0,0,0-.47-.44,1,1,0,0,0-.5,0,.8.8,0,0,0-.43.24.78.78,0,0,0-.42-.24A.94.94,0,0,0,29.82,41.17Z"/><path class="cls-11" d="M25.82,36.17h0a.85.85,0,0,0-.47.44,1,1,0,0,0,0,.75h0c.17.5.51.74,1.17,1.22l.25.18.11-.07.14-.11c.67-.48,1-.72,1.18-1.22h0a1.07,1.07,0,0,0,0-.75.88.88,0,0,0-.47-.44,1,1,0,0,0-.5,0,.8.8,0,0,0-.43.24.78.78,0,0,0-.42-.24A.94.94,0,0,0,25.82,36.17Z"/><path class="cls-11" d="M23.82,44.17h0a.85.85,0,0,0-.47.44,1,1,0,0,0,0,.75h0c.17.5.51.74,1.17,1.22l.25.18.11-.07.14-.11c.67-.48,1-.72,1.18-1.22h0a1.07,1.07,0,0,0,0-.75.88.88,0,0,0-.47-.44,1,1,0,0,0-.5,0,.8.8,0,0,0-.43.24.78.78,0,0,0-.42-.24A.94.94,0,0,0,23.82,44.17Z"/><circle class="cls-11" cx="30.73" cy="38.6" r="0.5"/><circle class="cls-11" cx="28.73" cy="44.6" r="0.5"/><circle class="cls-11" cx="37.73" cy="45.6" r="0.5"/><line class="cls-20" x1="18.32" y1="85.6" x2="93.84" y2="85.6"/><path class="cls-21" d="M20.08,26.35l1.44-.84.07.12a2.56,2.56,0,0,1,.3.75,1.65,1.65,0,0,1,0,.7A1.82,1.82,0,0,1,21,28.34a2,2,0,0,1-1.56.2,2.06,2.06,0,0,1-1.26-1,2.09,2.09,0,0,1,.78-2.87,2.08,2.08,0,0,1,.86-.28,2.63,2.63,0,0,1,1,.16l-.17.58a1.48,1.48,0,0,0-1.92,2.1,1.52,1.52,0,0,0,2,.59,1.26,1.26,0,0,0,.55-.67,1,1,0,0,0,0-.83l-.87.5Z"/><path class="cls-21" d="M23,22.46,25,26l-.53.31-2-3.5Z"/><path class="cls-21" d="M26.24,21.22l1.73,3-.53.3-1.73-3-.8.47-.29-.5,2.13-1.23.29.5Z"/><path class="cls-21" d="M31,18.07l.36.62a1.65,1.65,0,0,0-1.16.16,1.41,1.41,0,0,0-.69.91,1.56,1.56,0,0,0,1.08,1.87,1.41,1.41,0,0,0,1.13-.15,1.25,1.25,0,0,0,.42-.36,2.75,2.75,0,0,0,.15-.25,2.52,2.52,0,0,0,.14-.33l.37.64a2.19,2.19,0,0,1-.8.8,2,2,0,0,1-1.58.22,2,2,0,0,1-1.26-1,2.06,2.06,0,0,1-.25-1.44,2,2,0,0,1,1-1.45A2.05,2.05,0,0,1,31,18.07Z"/><path class="cls-22" d="M33.55,17.91a2,2,0,0,1-.19-1.58,2.1,2.1,0,0,1,2.58-1.48,2,2,0,0,1,1.27,1,2,2,0,0,1,.2,1.59,2.07,2.07,0,0,1-1,1.28,2,2,0,0,1-1.48.23A2,2,0,0,1,33.55,17.91Zm.54-.3a1.45,1.45,0,0,0,.93.72,1.42,1.42,0,0,0,1.11-.14,1.47,1.47,0,0,0,.71-.91,1.52,1.52,0,0,0-.16-1.16,1.5,1.5,0,0,0-.92-.72,1.5,1.5,0,0,0-1.67,2.21Z"/><path class="cls-21" d="M38.6,13.43l2,3.49-.53.3-2-3.49Z"/><path class="cls-21" d="M42.66,15.74,40.51,12l4.08,1.2-1.4-2.43.53-.3,2.14,3.7L41.78,13l1.41,2.45Z"/></svg>