<svg id="Layer_1" data-name="Layer 1" xmlns="http://www.w3.org/2000/svg" viewBox="0 0 110.86 127.99"><defs><style>.cls-1,.cls-10,.cls-12,.cls-19,.cls-2,.cls-6{fill:none;}.cls-1{stroke:#0d0233;stroke-width:12px;}.cls-1,.cls-10,.cls-11,.cls-12,.cls-13,.cls-14,.cls-15,.cls-19,.cls-2,.cls-20,.cls-22,.cls-23,.cls-3,.cls-6,.cls-7,.cls-8,.cls-9{stroke-miterlimit:10;}.cls-2{stroke:#f679a6;stroke-width:6px;}.cls-14,.cls-3,.cls-4{fill:#fff;}.cls-3{stroke:#270840;}.cls-11,.cls-22,.cls-5,.cls-7,.cls-9{fill:#6ee29e;}.cls-10,.cls-5,.cls-6,.cls-7,.cls-8,.cls-9{stroke:#11043b;}.cls-5{stroke-linejoin:round;}.cls-10,.cls-11,.cls-12,.cls-13,.cls-14,.cls-15,.cls-19,.cls-5,.cls-6,.cls-7,.cls-8,.cls-9{stroke-width:0.5px;}.cls-6,.cls-7,.cls-8{stroke-linecap:round;}.cls-15,.cls-8{fill:#eff3ed;}.cls-11,.cls-12,.cls-13,.cls-14,.cls-15{stroke:#0e0e0e;}.cls-13,.cls-16{fill:#f679a6;}.cls-17{fill:#11043b;}.cls-18{fill:#5ec982;}.cls-19,.cls-20,.cls-22,.cls-23{stroke:#000;}.cls-20{fill:#f7cd48;}.cls-20,.cls-22,.cls-23{stroke-width:0.1px;}.cls-21{fill:#e4336d;}.cls-23{fill:#8139b6;}</style></defs><polygon class="cls-1" points="105.19 35.53 105.19 92.38 55.96 120.8 16.56 98.06 16.38 97.96 6.72 92.38 6.72 35.53 55.96 7.1 105.19 35.53"/><g id="Layer_63" data-name="Layer 63"><polygon class="cls-2" points="105.19 35.53 105.19 92.38 55.96 120.8 6.72 92.38 6.72 35.53 55.96 7.1 105.19 35.53"/></g><line class="cls-3" x1="15.05" y1="87.6" x2="90.56" y2="87.6"/><circle class="cls-4" cx="36.24" cy="40.96" r="0.89"/><circle class="cls-4" cx="92.97" cy="56.33" r="0.36"/><line class="cls-5" x1="68.36" y1="73.13" x2="79.83" y2="73.13"/><path class="cls-6" d="M68.36,70.27H79.83a0,0,0,0,1,0,0v.65a5.73,5.73,0,0,1-5.73,5.73h0a5.73,5.73,0,0,1-5.73-5.73v-.65a0,0,0,0,1,0,0Z"/><circle class="cls-5" cx="74.03" cy="73.28" r="1.18"/><rect class="cls-6" x="62.88" y="80.72" width="3.02" height="1.27" rx="0.63" transform="translate(1.56 -1.21) rotate(1.09)"/><rect class="cls-6" x="61.44" y="84.74" width="6.07" height="1.69" rx="0.85" transform="matrix(1, 0.02, -0.02, 1, 1.64, -1.21)"/><rect class="cls-6" x="63.47" y="81.98" width="1.68" height="2.75" transform="translate(1.59 -1.21) rotate(1.09)"/><rect class="cls-6" x="62.29" y="86.41" width="1.62" height="0.6" transform="translate(1.66 -1.18) rotate(1.09)"/><rect class="cls-6" x="64.76" y="86.45" width="1.62" height="0.6" transform="translate(1.66 -1.23) rotate(1.09)"/><line class="cls-6" x1="64.36" y1="80.72" x2="64.38" y2="79.83"/><path class="cls-6" d="M68.85,74.67h0a.95.95,0,0,1,.95.95v4.7a.95.95,0,0,1-.95.95H67.9a0,0,0,0,1,0,0V75.62a.95.95,0,0,1,.95-.95Z" transform="translate(157.63 23.78) rotate(100.04)"/><line class="cls-6" x1="70.86" y1="80.43" x2="64.65" y2="79.33"/><line class="cls-6" x1="64.29" y1="76.2" x2="63.77" y2="79.17"/><line class="cls-6" x1="67.83" y1="76.83" x2="67.5" y2="78.69"/><line class="cls-6" x1="70.25" y1="77.26" x2="69.92" y2="79.12"/><circle class="cls-6" cx="64.82" cy="77.61" r="0.71"/><polyline class="cls-6" points="72.82 78.32 72.62 79.46 71.64 80.15"/><rect class="cls-6" x="81.81" y="83.1" width="3.02" height="1.27" rx="0.63" transform="translate(167.05 0.42) rotate(90)"/><rect class="cls-6" x="84.51" y="83.05" width="6.07" height="1.69" rx="0.85" transform="translate(171.44 -3.65) rotate(90)"/><rect class="cls-6" x="84.48" y="82.32" width="1.68" height="2.75" transform="translate(169.02 -1.63) rotate(90)"/><rect class="cls-6" x="87.88" y="82.26" width="1.62" height="0.6" transform="translate(171.25 -6.14) rotate(90)"/><rect class="cls-6" x="87.88" y="84.72" width="1.62" height="0.6" transform="translate(173.71 -3.67) rotate(90)"/><path class="cls-6" d="M80.62,73.77h.95a.95.95,0,0,1,.95.95v4.7a.95.95,0,0,1-.95.95h0a.95.95,0,0,1-.95-.95V73.77A0,0,0,0,1,80.62,73.77Z" transform="translate(163.13 154.13) rotate(-180)"/><line class="cls-6" x1="79.49" y1="74.66" x2="79.49" y2="80.96"/><line class="cls-6" x1="82.51" y1="81.86" x2="79.49" y2="81.86"/><line class="cls-6" x1="82.51" y1="78.27" x2="80.62" y2="78.27"/><line class="cls-6" x1="82.51" y1="75.81" x2="80.62" y2="75.81"/><circle class="cls-6" cx="81.22" cy="81.1" r="0.71"/><line class="cls-6" x1="81.04" y1="82.74" x2="81.04" y2="81.86"/><polyline class="cls-6" points="81.91 73.09 80.76 73.09 79.91 73.94"/><line class="cls-6" x1="65.19" y1="67.68" x2="68.69" y2="68.01"/><rect class="cls-6" x="61.08" y="61.69" width="3.73" height="11.55" rx="1.87" transform="matrix(-0.09, 1, -1, -0.09, 136.02, 11.14)"/><circle class="cls-5" cx="59.4" cy="67.13" r="0.99"/><line class="cls-6" x1="65.36" y1="65.82" x2="65.01" y2="69.54"/><line class="cls-6" x1="63.12" y1="65.61" x2="62.77" y2="69.33"/><rect class="cls-6" x="81.32" y="64.57" width="3.73" height="11.54" rx="1.87" transform="translate(191.51 81.91) rotate(145.88)"/><line class="cls-6" x1="83.47" y1="67.43" x2="80.38" y2="69.52"/><line class="cls-6" x1="84.73" y1="69.29" x2="81.64" y2="71.39"/><line class="cls-7" x1="81.92" y1="68.48" x2="79.95" y2="65.56"/><path class="cls-8" d="M86.74,79.45,86.79,77a.63.63,0,0,0-.61-.63h-.53A.61.61,0,0,0,85,77l0,2.45"/><circle class="cls-7" cx="85.86" cy="79.43" r="0.88"/><rect class="cls-6" x="69.84" y="68.44" width="8.16" height="1.84"/><line class="cls-6" x1="70.79" y1="67.52" x2="77.15" y2="67.52"/><polygon class="cls-9" points="69.57 62.26 77.57 62.26 78.25 62.52 77.74 64.35 70.08 64.35 69.57 62.26"/><path class="cls-6" d="M76.66,66.6h-5.5a1.08,1.08,0,0,1-1.08-1.08V64.35h7.66v1.17A1.08,1.08,0,0,1,76.66,66.6Z"/><path class="cls-9" d="M72.5,62.26A3.42,3.42,0,0,1,71.24,57c.63-.76,4.57-.8,5.19-.09a3.41,3.41,0,0,1-1.18,5.39"/><path class="cls-10" d="M72.29,62.26a3.57,3.57,0,0,1-2-3.21,3.49,3.49,0,0,1,.56-1.92"/><path class="cls-6" d="M76.73,56.94a3.58,3.58,0,0,1-1.28,5.31"/><path class="cls-10" d="M68.82,59.41a5.09,5.09,0,0,1,10.18,0l-1.26,4.94H70.08Z"/><line class="cls-6" x1="68.82" y1="59.33" x2="68.82" y2="54.49"/><line class="cls-6" x1="79" y1="59.33" x2="79" y2="53.13"/><path class="cls-6" d="M69.22,61.51h-.53a.78.78,0,0,1-.77-.77v-2a.78.78,0,0,1,.77-.78h.23"/><path class="cls-6" d="M78.62,61.51h.52a.78.78,0,0,0,.78-.77v-2a.78.78,0,0,0-.78-.78h-.22"/><path class="cls-6" d="M68.88,58.56a7.1,7.1,0,0,1,10-.22"/><line class="cls-6" x1="69.57" y1="62.26" x2="78.25" y2="62.26"/><circle class="cls-4" cx="72.8" cy="59" r="0.89"/><path class="cls-6" d="M71.25,63s4,1.54,5.7,0"/><line class="cls-11" x1="31" y1="66.49" x2="42.47" y2="66.7"/><path class="cls-12" d="M31,63.73H42.46a0,0,0,0,1,0,0v.65a5.73,5.73,0,0,1-5.73,5.73h0A5.73,5.73,0,0,1,31,64.39v-.65a0,0,0,0,1,0,0Z" transform="translate(1.28 -0.69) rotate(1.09)"/><circle class="cls-13" cx="36.67" cy="66.74" r="1.18"/><path class="cls-12" d="M31.27,71.11h0a.95.95,0,0,1,.95.95v4.7a.95.95,0,0,1-.95.95h-.95a0,0,0,0,1,0,0V72.05A.95.95,0,0,1,31.27,71.11Z" transform="translate(1.42 -0.58) rotate(1.09)"/><line class="cls-12" x1="33.39" y1="72.03" x2="33.27" y2="78.34"/><rect class="cls-12" x="30.21" y="80.09" width="3.02" height="1.27" rx="0.63" transform="translate(1.54 -0.59) rotate(1.09)"/><rect class="cls-12" x="28.77" y="84.11" width="6.07" height="1.69" rx="0.85" transform="translate(1.62 -0.59) rotate(1.09)"/><rect class="cls-12" x="30.8" y="81.36" width="1.68" height="2.75" transform="translate(1.58 -0.59) rotate(1.09)"/><line class="cls-12" x1="30.24" y1="79.18" x2="33.25" y2="79.23"/><rect class="cls-12" x="29.62" y="85.78" width="1.62" height="0.6" transform="translate(1.64 -0.56) rotate(1.09)"/><rect class="cls-12" x="32.09" y="85.83" width="1.62" height="0.6" transform="translate(1.64 -0.61) rotate(1.09)"/><line class="cls-12" x1="30.3" y1="75.59" x2="32.2" y2="75.63"/><line class="cls-12" x1="30.35" y1="73.13" x2="32.24" y2="73.16"/><circle class="cls-12" cx="31.54" cy="78.44" r="0.71"/><line class="cls-12" x1="31.69" y1="80.09" x2="31.71" y2="79.21"/><polyline class="cls-12" points="31 70.43 32.16 70.45 32.99 71.31"/><path class="cls-12" d="M41.1,71.33h.95a.95.95,0,0,1,.95.95V77a.95.95,0,0,1-.95.95h0A.95.95,0,0,1,41.1,77V71.33A0,0,0,0,1,41.1,71.33Z" transform="translate(82.68 150.05) rotate(-178.91)"/><line class="cls-12" x1="40.03" y1="72.18" x2="39.91" y2="78.48"/><rect class="cls-12" x="39.86" y="80.3" width="3.02" height="1.27" rx="0.63" transform="translate(81.19 162.63) rotate(-178.91)"/><rect class="cls-12" x="38.09" y="84.31" width="6.07" height="1.69" rx="0.85" transform="matrix(-1, -0.02, 0.02, -1, 80.62, 171.08)"/><rect class="cls-12" x="40.52" y="81.57" width="1.68" height="2.75" transform="translate(81.15 166.65) rotate(-178.91)"/><line class="cls-12" x1="42.91" y1="79.44" x2="39.89" y2="79.38"/><rect class="cls-12" x="41.63" y="86.03" width="1.62" height="0.6" transform="translate(83.24 173.45) rotate(-178.91)"/><rect class="cls-12" x="39.17" y="85.98" width="1.62" height="0.6" transform="translate(78.32 173.31) rotate(-178.91)"/><line class="cls-12" x1="42.97" y1="75.85" x2="41.08" y2="75.82"/><line class="cls-12" x1="43.02" y1="73.39" x2="41.13" y2="73.36"/><circle class="cls-12" cx="41.63" cy="78.65" r="0.71"/><line class="cls-12" x1="41.42" y1="80.3" x2="41.43" y2="79.41"/><polyline class="cls-12" points="42.47 70.67 41.32 70.65 40.46 71.48"/><line class="cls-12" x1="27.58" y1="66.51" x2="27.65" y2="62.98"/><rect class="cls-12" x="25.67" y="62.98" width="3.73" height="11.55" rx="1.87" transform="translate(1.31 -0.51) rotate(1.09)"/><circle class="cls-13" cx="27.47" cy="72.32" r="0.99"/><line class="cls-12" x1="25.71" y1="66.47" x2="29.45" y2="66.54"/><line class="cls-12" x1="25.67" y1="68.72" x2="29.4" y2="68.79"/><path class="cls-14" d="M26.71,78.71l.05-2.45a.62.62,0,0,1,.63-.61h.53a.62.62,0,0,1,.61.63l-.05,2.45"/><circle class="cls-13" cx="27.6" cy="78.73" r="0.88"/><rect class="cls-12" x="44.89" y="61.83" width="3.73" height="11.55" rx="1.87" transform="translate(105.2 125.41) rotate(169.36)"/><line class="cls-12" x1="48.18" y1="65.04" x2="44.51" y2="65.73"/><line class="cls-12" x1="48.6" y1="67.26" x2="44.93" y2="67.95"/><line class="cls-11" x1="46.34" y1="65.39" x2="45.69" y2="61.93"/><path class="cls-15" d="M49.43,77.05,49,74.64a.61.61,0,0,0-.72-.49l-.52.09a.63.63,0,0,0-.5.73l.46,2.4"/><circle class="cls-13" cx="48.57" cy="77.21" r="0.88"/><rect class="cls-12" x="32.55" y="61.9" width="8.16" height="1.84" transform="translate(1.2 -0.68) rotate(1.09)"/><line class="cls-12" x1="33.53" y1="60.92" x2="39.9" y2="61.04"/><polygon class="cls-13" points="32.42 55.64 40.42 55.8 41.09 56.07 40.55 57.88 32.88 57.74 32.42 55.64"/><path class="cls-12" d="M39.42,60.12,33.92,60a1.08,1.08,0,0,1-1.06-1.1l0-1.17,7.67.14,0,1.18A1.08,1.08,0,0,1,39.42,60.12Z"/><path class="cls-13" d="M35.35,55.7a3.41,3.41,0,0,1-2-3.17,3.35,3.35,0,0,1,.82-2.15c.64-.75,4.58-.72,5.19,0a3.46,3.46,0,0,1,.82,2.28,3.41,3.41,0,0,1-2.11,3.09"/><path class="cls-12" d="M35.13,55.7a3.6,3.6,0,0,1-2-3.26,3.69,3.69,0,0,1,.6-1.91"/><path class="cls-12" d="M39.68,50.46a3.57,3.57,0,0,1-1.39,5.28"/><path class="cls-12" d="M31.72,52.78A5.09,5.09,0,0,1,41.89,53l-1.34,4.91-7.67-.14Z"/><line class="cls-12" x1="31.72" y1="52.7" x2="31.82" y2="47.86"/><line class="cls-12" x1="41.9" y1="52.89" x2="42.01" y2="46.69"/><path class="cls-12" d="M32.08,54.88h-.53a.76.76,0,0,1-.75-.78l0-2a.78.78,0,0,1,.79-.75h.22"/><path class="cls-12" d="M41.48,55.06H42a.77.77,0,0,0,.79-.76l0-2a.78.78,0,0,0-.76-.78h-.22"/><path class="cls-12" d="M31.79,51.93a7.09,7.09,0,0,1,10,0"/><line class="cls-12" x1="32.42" y1="55.64" x2="41.1" y2="55.81"/><path class="cls-6" d="M33.88,56.6a7.05,7.05,0,0,0,5.37.16"/><path class="cls-16" d="M32.55,39.18h0a.88.88,0,0,0-.48.43,1.09,1.09,0,0,0,0,.76h0c.18.51.51.75,1.18,1.23l.25.18.1-.07.15-.11c.67-.48,1-.72,1.17-1.23h0a1,1,0,0,0,0-.76.83.83,0,0,0-.47-.43.82.82,0,0,0-.49,0,.72.72,0,0,0-.43.24.74.74,0,0,0-.43-.24A.82.82,0,0,0,32.55,39.18Z"/><path class="cls-4" d="M36.55,51.18h0a.88.88,0,0,0-.48.43,1.09,1.09,0,0,0,0,.76h0c.18.51.51.75,1.18,1.23l.25.18.1-.07.15-.11c.67-.48,1-.72,1.17-1.23h0a1,1,0,0,0,0-.76.83.83,0,0,0-.47-.43.82.82,0,0,0-.49,0,.72.72,0,0,0-.43.24.74.74,0,0,0-.43-.24A.82.82,0,0,0,36.55,51.18Z"/><path class="cls-16" d="M27.55,41.18h0a.88.88,0,0,0-.48.43,1.09,1.09,0,0,0,0,.76h0c.18.51.51.75,1.18,1.23l.25.18.1-.07.15-.11c.67-.48,1-.72,1.17-1.23h0a1,1,0,0,0,0-.76.83.83,0,0,0-.47-.43.82.82,0,0,0-.49,0,.72.72,0,0,0-.43.24.74.74,0,0,0-.43-.24A.82.82,0,0,0,27.55,41.18Z"/><path class="cls-16" d="M23.55,36.18h0a.88.88,0,0,0-.48.43,1.09,1.09,0,0,0,0,.76h0c.18.51.51.75,1.18,1.23l.25.18.1-.07.15-.11c.67-.48,1-.72,1.17-1.23h0a1,1,0,0,0,0-.76.83.83,0,0,0-.47-.43.82.82,0,0,0-.49,0,.72.72,0,0,0-.43.24.74.74,0,0,0-.43-.24A.82.82,0,0,0,23.55,36.18Z"/><path class="cls-16" d="M21.55,44.18h0a.88.88,0,0,0-.48.43,1.09,1.09,0,0,0,0,.76h0c.18.51.51.75,1.18,1.23l.25.18.1-.07.15-.11c.67-.48,1-.72,1.17-1.23h0a1,1,0,0,0,0-.76.83.83,0,0,0-.47-.43.82.82,0,0,0-.49,0,.72.72,0,0,0-.43.24.74.74,0,0,0-.43-.24A.82.82,0,0,0,21.55,44.18Z"/><circle class="cls-16" cx="28.45" cy="38.6" r="0.5"/><circle class="cls-16" cx="26.45" cy="44.6" r="0.5"/><circle class="cls-16" cx="35.45" cy="45.6" r="0.5"/><path class="cls-17" d="M18.81,28.64l1.44-.83.07.11a3.23,3.23,0,0,1,.31.75,1.89,1.89,0,0,1-.93,2,2,2,0,0,1-1.56.19,2.1,2.1,0,0,1,.38-4.12,2.58,2.58,0,0,1,1,.15l-.17.58a1.48,1.48,0,0,0-1.92,2.11,1.44,1.44,0,0,0,1,.72,1.46,1.46,0,0,0,1.06-.14,1.21,1.21,0,0,0,.54-.67,1,1,0,0,0,0-.83l-.87.51Z"/><path class="cls-17" d="M21.68,24.75l2,3.5-.52.3-2-3.49Z"/><path class="cls-17" d="M25,23.51l1.73,3-.53.3-1.72-3-.81.46-.28-.49,2.13-1.23.28.49Z"/><path class="cls-17" d="M29.73,20.36l.36.62a1.68,1.68,0,0,0-1.17.17,1.34,1.34,0,0,0-.68.91,1.46,1.46,0,0,0,.17,1.15,1.41,1.41,0,0,0,.9.71,1.44,1.44,0,0,0,1.13-.14,1.54,1.54,0,0,0,.58-.62c0-.09.09-.2.13-.32l.37.63a2.15,2.15,0,0,1-.8.81,2.07,2.07,0,0,1-2.84-.76,2.1,2.1,0,0,1,.79-2.89A2.09,2.09,0,0,1,29.73,20.36Z"/><path class="cls-18" d="M32.28,20.2a2,2,0,0,1-.19-1.58,2.07,2.07,0,0,1,1-1.27,2,2,0,0,1,1.59-.21,2,2,0,0,1,1.28,1,2,2,0,0,1,.19,1.58,2,2,0,0,1-1,1.28,2.1,2.1,0,0,1-1.48.24A2,2,0,0,1,32.28,20.2Zm.54-.3a1.43,1.43,0,0,0,.94.73,1.5,1.5,0,0,0,1.81-1.06,1.45,1.45,0,0,0-.16-1.15,1.42,1.42,0,0,0-.91-.72,1.49,1.49,0,0,0-1.68,2.2Z"/><path class="cls-17" d="M37.34,15.72l2,3.49-.53.31-2-3.49Z"/><path class="cls-17" d="M41.39,18l-2.15-3.73,4.09,1.19-1.4-2.43.52-.3,2.14,3.7-4.08-1.18,1.41,2.44Z"/><path class="cls-19" d="M54.9,64.51s.92-9.28,5.48-13.84"/><line class="cls-19" x1="55.27" y1="64.51" x2="56.54" y2="45.01"/><path class="cls-19" d="M54.77,64.29s-.68-12.85-3-15.27"/><path class="cls-20" d="M54.39,44s-2.26-4.1.11-4.5S54.71,43.9,54.39,44Z"/><path class="cls-20" d="M54.32,44s1.2-4.54,3.19-3.19S54.64,44.12,54.32,44Z"/><path class="cls-20" d="M54.37,44s4.67-.44,4.09,1.9S54.36,44.31,54.37,44Z"/><path class="cls-20" d="M54.45,43.79s4-2.51,4.5-.17S54.59,44.1,54.45,43.79Z"/><path class="cls-20" d="M54.88,44.42s2.26,4.1-.12,4.5S54.55,44.54,54.88,44.42Z"/><path class="cls-20" d="M55.12,44.07s3.69,2.9,1.66,4.19S54.87,44.32,55.12,44.07Z"/><path class="cls-20" d="M54.73,44.47s-4.11-2.26-2.32-3.87S54.93,44.19,54.73,44.47Z"/><path class="cls-20" d="M54.94,44.46S53.75,49,51.75,47.64,54.62,44.32,54.94,44.46Z"/><path class="cls-20" d="M54.89,44.48s-4.66.44-4.09-1.9S54.91,44.14,54.89,44.48Z"/><path class="cls-20" d="M54.82,44.66s-4,2.5-4.51.16S54.67,44.34,54.82,44.66Z"/><circle class="cls-21" cx="54.82" cy="44.38" r="1.95"/><path class="cls-22" d="M59.37,48.05s-2.63-3.88-.31-4.5S59.68,47.89,59.37,48.05Z"/><path class="cls-22" d="M59.3,48s.76-4.63,2.88-3.48S59.63,48.12,59.3,48Z"/><path class="cls-22" d="M59.35,48s4.6-.88,4.25,1.5S59.37,48.33,59.35,48Z"/><path class="cls-22" d="M59.41,47.8s3.7-2.86,4.46-.58S59.58,48.1,59.41,47.8Z"/><path class="cls-22" d="M59.89,48.39s2.64,3.88.31,4.5S59.58,48.55,59.89,48.39Z"/><path class="cls-22" d="M60.1,48s3.95,2.53,2,4S59.88,48.29,60.1,48Z"/><path class="cls-22" d="M59.75,48.46s-4.3-1.87-2.66-3.63S59.93,48.16,59.75,48.46Z"/><path class="cls-22" d="M60,48.43s-.76,4.62-2.87,3.47S59.63,48.32,60,48.43Z"/><path class="cls-22" d="M59.92,48.46s-4.61.87-4.25-1.51S59.9,48.11,59.92,48.46Z"/><path class="cls-22" d="M59.86,48.64s-3.71,2.86-4.47.58S59.69,48.34,59.86,48.64Z"/><circle class="cls-21" cx="59.84" cy="48.36" r="1.95"/><path class="cls-23" d="M52.37,50.05s-2.63-3.88-.31-4.5S52.68,49.89,52.37,50.05Z"/><path class="cls-23" d="M52.3,50s.76-4.63,2.88-3.48S52.63,50.12,52.3,50Z"/><path class="cls-23" d="M52.35,50s4.6-.88,4.25,1.5S52.37,50.33,52.35,50Z"/><path class="cls-23" d="M52.41,49.8s3.7-2.86,4.46-.58S52.58,50.1,52.41,49.8Z"/><path class="cls-23" d="M52.89,50.39s2.64,3.88.31,4.5S52.58,50.55,52.89,50.39Z"/><path class="cls-23" d="M53.1,50s3.95,2.53,2,4S52.88,50.29,53.1,50Z"/><path class="cls-23" d="M52.75,50.46s-4.3-1.87-2.66-3.63S52.93,50.16,52.75,50.46Z"/><path class="cls-23" d="M53,50.43s-.76,4.62-2.87,3.47S52.63,50.32,53,50.43Z"/><path class="cls-23" d="M52.92,50.46s-4.61.87-4.25-1.51S52.9,50.11,52.92,50.46Z"/><path class="cls-23" d="M52.86,50.64s-3.71,2.86-4.47.58S52.69,50.34,52.86,50.64Z"/><circle class="cls-21" cx="52.84" cy="50.36" r="1.95"/><path class="cls-8" d="M55.42,63l1.21,2.14a.62.62,0,0,1-.24.84l-.46.26a.62.62,0,0,1-.84-.23l-1.21-2.14"/><circle class="cls-7" cx="54.65" cy="63.39" r="0.88"/></svg>